/* XPM */
static char * close_pressed_xpm[] = {
"25 26 66 1",
" 	c None",
".	c #6A6A6A",
"+	c #F9F9F9",
"@	c #F6F6F6",
"#	c #F4F4F4",
"$	c #F2F2F2",
"%	c #EDEDED",
"&	c #DEDEDE",
"*	c #D4D4D4",
"=	c #C9C9C9",
"-	c #C2C2C2",
";	c #F0F0F0",
">	c #DFDFDF",
",	c #C3C3C3",
"'	c #B0B0B0",
")	c #A7A7A7",
"!	c #9F9F9F",
"~	c #999999",
"{	c #DCDCDC",
"]	c #CBCBCB",
"^	c #BBBBBB",
"/	c #A1A1A1",
"(	c #A8A8A8",
"_	c #B6B6B6",
":	c #BFBFBF",
"<	c #C7C7C7",
"[	c #E3E3E3",
"}	c #CECECE",
"|	c #B5B5B5",
"1	c #A4A4A4",
"2	c #BDBDBD",
"3	c #E2E2E2",
"4	c #D8D8D8",
"5	c #C0C0C0",
"6	c #CDCDCD",
"7	c #E1E1E1",
"8	c #ADADAD",
"9	c #CFCFCF",
"0	c #E0E0E0",
"a	c #B8B8B8",
"b	c #D2D2D2",
"c	c #828282",
"d	c #D5D5D5",
"e	c #BCBCBC",
"f	c #C6C6C6",
"g	c #4F4F4F",
"h	c #A0A0A0",
"i	c #D6D6D6",
"j	c #E6E6E6",
"k	c #818181",
"l	c #D3D3D3",
"m	c #E7E7E7",
"n	c #919191",
"o	c #4D4D4D",
"p	c #DDDDDD",
"q	c #DADADA",
"r	c #A5A5A5",
"s	c #F1F1F1",
"t	c #DBDBDB",
"u	c #8C8C8C",
"v	c #EBEBEB",
"w	c #F3F3F3",
"x	c #D9D9D9",
"y	c #E5E5E5",
"z	c #D7D7D7",
"A	c #E4E4E4",
".........................",
"+++++++++++++++++++++++++",
"@@@@@@@@@@@@@@@@@@@@@@@@@",
"#########################",
"$$$$$$$$%&*=-=*&%$$$$$$$$",
";;;;;;;>,')!~!)',>;;;;;;;",
">>>>>{]^/(_:<:_(/^]{>>>>>",
"[[[[[}|12]]]]]]]21|}[[[[[",
"333345(=666666666=(543333",
"777>]8,99999999999,8]>777",
"00045abbbc!bbb!cbbba54000",
">>>def***'gh*hg'***fed>>>",
"&&&*^9iiij^gkg^jiii9^*&&&",
"&&&l^i4444mnonm4444i^l&&&",
"pppi,*qqqq1gng1qqqq*,ippp",
"{{{4]b{{{rg^s^gr{{{b]4{{{",
"tttqb9&&&u^v&v^u&&&9bqttt",
"qqqqq9t77w%777%w77t9qqqqq",
"xxxxqt*3[[[[[[[[[3*tqxxxx",
"xxxxx&{47yyyyyyy74{&xxxxx",
"44444x&0p0[yjy[0p0&x44444",
"zzzzzzz{333373333{zzzzzzz",
"iiiiiiii4{>3A3>{4iiiiiiii",
"ddddddddddddddddddddddddd",
"*************************",
"*************************"};
