/* XPM */
static char * close_inactive_xpm[] = {
"25 26 44 1",
" 	c None",
".	c #6A6A6A",
"+	c #F9F9F9",
"@	c #F6F6F6",
"#	c #F4F4F4",
"$	c #F2F2F2",
"%	c #F0F0F0",
"&	c #EEEEEE",
"*	c #D8D8D8",
"=	c #CBCBCB",
"-	c #BFBFBF",
";	c #B6B6B6",
">	c #DFDFDF",
",	c #D6D6D6",
"'	c #BABABA",
")	c #C3C3C3",
"!	c #D1D1D1",
"~	c #DCDCDC",
"{	c #E3E3E3",
"]	c #CFCFCF",
"^	c #B9B9B9",
"/	c #E6E6E6",
"(	c #E2E2E2",
"_	c #D9D9D9",
":	c #E1E1E1",
"<	c #E0E0E0",
"[	c #CECECE",
"}	c #999999",
"|	c #B5B5B5",
"1	c #C4C4C4",
"2	c #686868",
"3	c #DEDEDE",
"4	c #BBBBBB",
"5	c #979797",
"6	c #666666",
"7	c #DDDDDD",
"8	c #DBDBDB",
"9	c #DADADA",
"0	c #D2D2D2",
"a	c #C9C9C9",
"b	c #D7D7D7",
"c	c #C1C1C1",
"d	c #D5D5D5",
"e	c #D4D4D4",
".........................",
"+++++++++++++++++++++++++",
"@@@@@@@@@@@@@@@@@@@@@@@@@",
"#########################",
"$$$$$$$$$$$$$$$$$$$$$$$$$",
"%%%%%%%%&*=-;-=*&%%%%%%%%",
">>>>>>>,')!~{~!)',>>>>>>>",
"{{{{{{]^,///////,^]{{{{{{",
"(((((_^(/////////(^_(((((",
"::::<',///////////,'<::::",
"<<<<[)///}|///|}///)[<<<<",
">>>>1!///|2|/|2|///!1>>>>",
"33334~////|252|////~43333",
"3333|{/////565/////{|3333",
"77774~////|252|////~47777",
"~~~~)!///|2|/|2|///!)~~~~",
"8888=)///}|///|}///)=8888",
"9999_^,///////////,^_9999",
"_____0^(/////////(^0_____",
"______a^,///////,^a______",
"*******!^)!~{~!)^!*******",
"bbbbbbbb,ac'|'ca,bbbbbbbb",
",,,,,,,,,,,,,,,,,,,,,,,,,",
"ddddddddddddddddddddddddd",
"eeeeeeeeeeeeeeeeeeeeeeeee",
"eeeeeeeeeeeeeeeeeeeeeeeee"};
