/* XPM */
static char * close_prelight_xpm[] = {
"25 26 64 1",
" 	c None",
".	c #6A6A6A",
"+	c #F9F9F9",
"@	c #F6F6F6",
"#	c #F4F4F4",
"$	c #F2F2F2",
"%	c #EDEDED",
"&	c #DEDEDE",
"*	c #D4D4D4",
"=	c #C9C9C9",
"-	c #C2C2C2",
";	c #F0F0F0",
">	c #DFDFDF",
",	c #C4C4C4",
"'	c #C0C0C0",
")	c #DCDCDC",
"!	c #CBCBCB",
"~	c #D2D2D2",
"{	c #E4E4E4",
"]	c #F1F1F1",
"^	c #FBFBFB",
"/	c #E3E3E3",
"(	c #CECECE",
"_	c #E9E9E9",
":	c #FDFDFD",
"<	c #E2E2E2",
"[	c #D8D8D8",
"}	c #C5C5C5",
"|	c #E1E1E1",
"1	c #E7E7E7",
"2	c #FAFAFA",
"3	c #E0E0E0",
"4	c #C6C6C6",
"5	c #CFCFCF",
"6	c #F8F8F8",
"7	c #919191",
"8	c #B6B6B6",
"9	c #D5D5D5",
"0	c #C3C3C3",
"a	c #F7F7F7",
"b	c #B9B9B9",
"c	c #4F4F4F",
"d	c #BFBFBF",
"e	c #F5F5F5",
"f	c #BBBBBB",
"g	c #8C8C8C",
"h	c #D3D3D3",
"i	c #4D4D4D",
"j	c #DDDDDD",
"k	c #D6D6D6",
"l	c #E6E6E6",
"m	c #B3B3B3",
"n	c #D9D9D9",
"o	c #B1B1B1",
"p	c #DBDBDB",
"q	c #DADADA",
"r	c #C8C8C8",
"s	c #EFEFEF",
"t	c #909090",
"u	c #ECECEC",
"v	c #CDCDCD",
"w	c #BABABA",
"x	c #EAEAEA",
"y	c #D7D7D7",
".........................",
"+++++++++++++++++++++++++",
"@@@@@@@@@@@@@@@@@@@@@@@@@",
"#########################",
"$$$$$$$$%&*=-=*&%$$$$$$$$",
";;;;;;;>,''''''',>;;;;;;;",
">>>>>)!-'~{]^]{~'-!)>>>>>",
"/////(-,_:::::::_,-(/////",
"<<<<[},@^^^^^^^^^@,}[<<<<",
"|||>!'1222222222221'!>|||",
"333[45666786668766654[333",
">>>90>aaabc8a8cbaaa>09>>>",
"&&&*d_eee+fcgcf+eee_d*&&&",
"&&&hf]####67i76####]fh&&&",
"jjjkdl$$$$mc7cm$$$$ldkjjj",
")))[,n;;;ocf+fco;;;n,[)))",
"pppq!rssstfeseftsssr!qppp",
"qqqqnfp%%6#%%%#6%%pfnqqqq",
"nnnnq9f1uuuuuuuuu1f9qnnnn",
"nnnnn&vwnxxxxxxxnwv&nnnnn",
"[[[[[n&yw0h&l&h0wy&n[[[[[",
"yyyyyyy)|5}fmf}5|)yyyyyyy",
"kkkkkkkk[)><{<>)[kkkkkkkk",
"9999999999999999999999999",
"*************************",
"*************************"};
