/* XPM */
static char * close_active_xpm[] = {
"25 26 68 1",
" 	c None",
".	c #6A6A6A",
"+	c #F9F9F9",
"@	c #F6F6F6",
"#	c #F4F4F4",
"$	c #F2F2F2",
"%	c #EDEDED",
"&	c #DEDEDE",
"*	c #D3D3D3",
"=	c #C9C9C9",
"-	c #C1C1C1",
";	c #F0F0F0",
">	c #C3C3C3",
",	c #C0C0C0",
"'	c #DFDFDF",
")	c #DCDCDC",
"!	c #CBCBCB",
"~	c #C2C2C2",
"{	c #D1D1D1",
"]	c #E1E1E1",
"^	c #E3E3E3",
"/	c #CDCDCD",
"(	c #E4E4E4",
"_	c #E2E2E2",
":	c #D7D7D7",
"<	c #C5C5C5",
"[	c #EFEFEF",
"}	c #F1F1F1",
"|	c #E0E0E0",
"1	c #C6C6C6",
"2	c #CCCCCC",
"3	c #8D8D8D",
"4	c #B1B1B1",
"5	c #D4D4D4",
"6	c #D8D8D8",
"7	c #ECECEC",
"8	c #B6B6B6",
"9	c #4F4F4F",
"0	c #AFAFAF",
"a	c #BFBFBF",
"b	c #EAEAEA",
"c	c #BBBBBB",
"d	c #898989",
"e	c #D2D2D2",
"f	c #E5E5E5",
"g	c #E7E7E7",
"h	c #919191",
"i	c #4D4D4D",
"j	c #DDDDDD",
"k	c #D5D5D5",
"l	c #DBDBDB",
"m	c #AAAAAA",
"n	c #C4C4C4",
"o	c #A9A9A9",
"p	c #D9D9D9",
"q	c #8C8C8C",
"r	c #EBEBEB",
"s	c #DADADA",
"t	c #D0D0D0",
"u	c #B9B9B9",
"v	c #B8B8B8",
"w	c #BABABA",
"x	c #BDBDBD",
"y	c #C7C7C7",
"z	c #CECECE",
"A	c #CFCFCF",
"B	c #B3B3B3",
"C	c #D6D6D6",
".........................",
"+++++++++++++++++++++++++",
"@@@@@@@@@@@@@@@@@@@@@@@@@",
"#########################",
"$$$$$$$$%&*=-=*&%$$$$$$$$",
";;;;;;;&>,,,,,,,>&;;;;;;;",
"''''')!~,{]%@%]{,~!)'''''",
"^^^^^/~>(@@@@@@@(>~/^^^^^",
"____:<>[#########[><:____",
"]]]&!,]}}}}}}}}}}}],!&]]]",
"|||:12[[[34[[[43[[[21:|||",
"'''5>677789070987776>5'''",
"&&&*a|bbb$c9d9c$bbb|a*&&&",
"&&&ecfgggg;hih;ggggfce&&&",
"jjjkal((((m9h9m((((lakjjj",
")))6n{___o9c#c9o___{n6)))",
"lllp!>'''qcr'rcq'''>!plll",
"sssspctjj$bjjjb$jjtcpssss",
"ppppsku:sssssssss:ukspppp",
"pppppj/v/6666666/v/jppppp",
"66666p&:wxyz*zyxw:&p66666",
":::::::l]A<cBc<A]l:::::::",
"CCCCCCCC:l'](]'l:CCCCCCCC",
"kkkkkkkkkkkkkkkkkkkkkkkkk",
"5555555555555555555555555",
"5555555555555555555555555"};
