/* XPM */
static char * hide_pressed_xpm[] = {
"25 26 65 1",
" 	c None",
".	c #6A6A6A",
"+	c #F9F9F9",
"@	c #F6F6F6",
"#	c #F4F4F4",
"$	c #F2F2F2",
"%	c #EDEDED",
"&	c #DEDEDE",
"*	c #D4D4D4",
"=	c #C9C9C9",
"-	c #C2C2C2",
";	c #F0F0F0",
">	c #DFDFDF",
",	c #C3C3C3",
"'	c #B0B0B0",
")	c #A7A7A7",
"!	c #9F9F9F",
"~	c #999999",
"{	c #DCDCDC",
"]	c #CBCBCB",
"^	c #BBBBBB",
"/	c #A1A1A1",
"(	c #A8A8A8",
"_	c #B6B6B6",
":	c #BFBFBF",
"<	c #C7C7C7",
"[	c #E3E3E3",
"}	c #CECECE",
"|	c #B5B5B5",
"1	c #A4A4A4",
"2	c #BDBDBD",
"3	c #E2E2E2",
"4	c #D8D8D8",
"5	c #C0C0C0",
"6	c #CDCDCD",
"7	c #E1E1E1",
"8	c #ADADAD",
"9	c #CFCFCF",
"0	c #E0E0E0",
"a	c #B8B8B8",
"b	c #D2D2D2",
"c	c #D5D5D5",
"d	c #BCBCBC",
"e	c #C6C6C6",
"f	c #D6D6D6",
"g	c #808080",
"h	c #5B5B5B",
"i	c #D3D3D3",
"j	c #EFEFEF",
"k	c #848484",
"l	c #5C5C5C",
"m	c #B3B3B3",
"n	c #DDDDDD",
"o	c #DADADA",
"p	c #DBDBDB",
"q	c #7D7D7D",
"r	c #4F4F4F",
"s	c #7E7E7E",
"t	c #EEEEEE",
"u	c #F5F5F5",
"v	c #D9D9D9",
"w	c #E5E5E5",
"x	c #E6E6E6",
"y	c #D7D7D7",
"z	c #E4E4E4",
".........................",
"+++++++++++++++++++++++++",
"@@@@@@@@@@@@@@@@@@@@@@@@@",
"#########################",
"$$$$$$$$%&*=-=*&%$$$$$$$$",
";;;;;;;>,')!~!)',>;;;;;;;",
">>>>>{]^/(_:<:_(/^]{>>>>>",
"[[[[[}|12]]]]]]]21|}[[[[[",
"333345(=666666666=(543333",
"777>]8,99999999999,8]>777",
"00045abbbbbbbbbbbbba54000",
">>>cde***1:***:1***edc>>>",
"&&&*^9fffgh-f-hgfff9^*&&&",
"&&&i^f444jklmlkj444f^i&&&",
"nnnf,*ooop;qrs;pooo*,fnnn",
"{{{4]b{{{{ntgtn{{{{b]4{{{",
"pppob9&&&&&0u0&&&&&9boppp",
"ooooo9p77777777777p9ooooo",
"vvvvop*3[[[[[[[[[3*povvvv",
"vvvvv&{47wwwwwww74{&vvvvv",
"44444v&0n0[wxw[0n0&v44444",
"yyyyyyy{333373333{yyyyyyy",
"ffffffff4{>3z3>{4ffffffff",
"ccccccccccccccccccccccccc",
"*************************",
"*************************"};
