/* XPM */
static char * hide_active_xpm[] = {
"25 26 63 1",
" 	c None",
".	c #6A6A6A",
"+	c #F9F9F9",
"@	c #F6F6F6",
"#	c #F4F4F4",
"$	c #F2F2F2",
"%	c #EDEDED",
"&	c #DEDEDE",
"*	c #D4D4D4",
"=	c #C9C9C9",
"-	c #C2C2C2",
";	c #F0F0F0",
">	c #DFDFDF",
",	c #C4C4C4",
"'	c #C0C0C0",
")	c #DCDCDC",
"!	c #CBCBCB",
"~	c #D1D1D1",
"{	c #E1E1E1",
"]	c #E3E3E3",
"^	c #CECECE",
"/	c #C3C3C3",
"(	c #E4E4E4",
"_	c #E2E2E2",
":	c #D8D8D8",
"<	c #C5C5C5",
"[	c #EFEFEF",
"}	c #F1F1F1",
"|	c #E0E0E0",
"1	c #C6C6C6",
"2	c #CCCCCC",
"3	c #D5D5D5",
"4	c #ECECEC",
"5	c #B3B3B3",
"6	c #BFBFBF",
"7	c #EAEAEA",
"8	c #848484",
"9	c #5D5D5D",
"0	c #D3D3D3",
"a	c #BBBBBB",
"b	c #E5E5E5",
"c	c #E7E7E7",
"d	c #858585",
"e	c #BEBEBE",
"f	c #DDDDDD",
"g	c #D6D6D6",
"h	c #DBDBDB",
"i	c #F3F3F3",
"j	c #7D7D7D",
"k	c #4F4F4F",
"l	c #7E7E7E",
"m	c #808080",
"n	c #DADADA",
"o	c #D9D9D9",
"p	c #D0D0D0",
"q	c #B9B9B9",
"r	c #D7D7D7",
"s	c #CDCDCD",
"t	c #B8B8B8",
"u	c #BABABA",
"v	c #BDBDBD",
"w	c #C7C7C7",
"x	c #CFCFCF",
".........................",
"+++++++++++++++++++++++++",
"@@@@@@@@@@@@@@@@@@@@@@@@@",
"#########################",
"$$$$$$$$%&*=-=*&%$$$$$$$$",
";;;;;;;>,''''''',>;;;;;;;",
">>>>>)!-'~{%@%{~'-!)>>>>>",
"]]]]]^-/(@@@@@@@(/-^]]]]]",
"____:</[#########[/<:____",
"{{{>!'{}}}}}}}}}}}{'!>{{{",
"|||:12[[[[[[[[[[[[[21:|||",
">>>3/:4445*444*5444:/3>>>",
"&&&*6|7778907098777|6*&&&",
"&&&0abccc#d9e9d#cccba0&&&",
"fffg6h((((ijkli((((h6gfff",
"))):,~____];m;]____~,:)))",
"hhhn!/>>>>>{@{>>>>>/!nhhh",
"nnnnoapfffffffffffpaonnnn",
"oooon3qrnnnnnnnnnrq3noooo",
"ooooo&sts:::::::sts&ooooo",
":::::o&ruvw^0^wvur&o:::::",
"rrrrrrr){x<a5a<x{)rrrrrrr",
"gggggggg:)>_(_>):gggggggg",
"3333333333333333333333333",
"*************************",
"*************************"};
