/* XPM */
static char * hide_prelight_xpm[] = {
"25 26 63 1",
" 	c None",
".	c #6A6A6A",
"+	c #F9F9F9",
"@	c #F6F6F6",
"#	c #F4F4F4",
"$	c #F2F2F2",
"%	c #EDEDED",
"&	c #DEDEDE",
"*	c #D4D4D4",
"=	c #C9C9C9",
"-	c #C2C2C2",
";	c #F0F0F0",
">	c #DFDFDF",
",	c #C4C4C4",
"'	c #C0C0C0",
")	c #DCDCDC",
"!	c #CBCBCB",
"~	c #D2D2D2",
"{	c #E4E4E4",
"]	c #F1F1F1",
"^	c #FBFBFB",
"/	c #E3E3E3",
"(	c #CECECE",
"_	c #E9E9E9",
":	c #FDFDFD",
"<	c #E2E2E2",
"[	c #D8D8D8",
"}	c #C5C5C5",
"|	c #E1E1E1",
"1	c #E7E7E7",
"2	c #FAFAFA",
"3	c #E0E0E0",
"4	c #C6C6C6",
"5	c #CFCFCF",
"6	c #F8F8F8",
"7	c #D5D5D5",
"8	c #C3C3C3",
"9	c #F7F7F7",
"0	c #BABABA",
"a	c #DDDDDD",
"b	c #BFBFBF",
"c	c #F5F5F5",
"d	c #868686",
"e	c #5E5E5E",
"f	c #D3D3D3",
"g	c #BBBBBB",
"h	c #858585",
"i	c #C7C7C7",
"j	c #D6D6D6",
"k	c #E6E6E6",
"l	c #7E7E7E",
"m	c #4F4F4F",
"n	c #D9D9D9",
"o	c #808080",
"p	c #DBDBDB",
"q	c #DADADA",
"r	c #C8C8C8",
"s	c #EFEFEF",
"t	c #ECECEC",
"u	c #CDCDCD",
"v	c #EAEAEA",
"w	c #D7D7D7",
"x	c #B3B3B3",
".........................",
"+++++++++++++++++++++++++",
"@@@@@@@@@@@@@@@@@@@@@@@@@",
"#########################",
"$$$$$$$$%&*=-=*&%$$$$$$$$",
";;;;;;;>,''''''',>;;;;;;;",
">>>>>)!-'~{]^]{~'-!)>>>>>",
"/////(-,_:::::::_,-(/////",
"<<<<[},@^^^^^^^^^@,}[<<<<",
"|||>!'1222222222221'!>|||",
"333[45666666666666654[333",
">>>78>9990a999a0999>87>>>",
"&&&*b_cccde)c)edccc_b*&&&",
"&&&fg]###6heieh6###]gf&&&",
"aaajbk$$$$6lml6$$$$kbjaaa",
")))[,n;;;;;#o#;;;;;n,[)))",
"pppq!rssssss2ssssssr!qppp",
"qqqqngp%%%%%%%%%%%pgnqqqq",
"nnnnq7g1ttttttttt1g7qnnnn",
"nnnnn&u0nvvvvvvvn0u&nnnnn",
"[[[[[n&w08f&k&f80w&n[[[[[",
"wwwwwww)|5}gxg}5|)wwwwwww",
"jjjjjjjj[)><{<>)[jjjjjjjj",
"7777777777777777777777777",
"*************************",
"*************************"};
