/* XPM */
static char * hide_inactive_xpm[] = {
"25 26 49 1",
" 	c None",
".	c #6A6A6A",
"+	c #F9F9F9",
"@	c #F6F6F6",
"#	c #F4F4F4",
"$	c #F2F2F2",
"%	c #F0F0F0",
"&	c #EEEEEE",
"*	c #D8D8D8",
"=	c #CBCBCB",
"-	c #BFBFBF",
";	c #B6B6B6",
">	c #DFDFDF",
",	c #D6D6D6",
"'	c #BABABA",
")	c #C3C3C3",
"!	c #D1D1D1",
"~	c #DCDCDC",
"{	c #E3E3E3",
"]	c #CFCFCF",
"^	c #B9B9B9",
"/	c #E6E6E6",
"(	c #E2E2E2",
"_	c #D9D9D9",
":	c #E1E1E1",
"<	c #E0E0E0",
"[	c #CECECE",
"}	c #C4C4C4",
"|	c #B8B8B8",
"1	c #D2D2D2",
"2	c #DEDEDE",
"3	c #BBBBBB",
"4	c #919191",
"5	c #737373",
"6	c #D3D3D3",
"7	c #B5B5B5",
"8	c #E4E4E4",
"9	c #8F8F8F",
"0	c #DDDDDD",
"a	c #898989",
"b	c #676767",
"c	c #8A8A8A",
"d	c #DBDBDB",
"e	c #DADADA",
"f	c #C9C9C9",
"g	c #D7D7D7",
"h	c #C1C1C1",
"i	c #D5D5D5",
"j	c #D4D4D4",
".........................",
"+++++++++++++++++++++++++",
"@@@@@@@@@@@@@@@@@@@@@@@@@",
"#########################",
"$$$$$$$$$$$$$$$$$$$$$$$$$",
"%%%%%%%%&*=-;-=*&%%%%%%%%",
">>>>>>>,')!~{~!)',>>>>>>>",
"{{{{{{]^,///////,^]{{{{{{",
"(((((_^(/////////(^_(((((",
"::::<',///////////,'<::::",
"<<<<[)/////////////)[<<<<",
">>>>}!///|1///1|///!}>>>>",
"22223~///456/654///~32222",
"22227{///895)598///{72222",
"00003~////{aba{////~30000",
"~~~~)!/////:c</////!)~~~~",
"dddd=)/////////////)=dddd",
"eeee_^,///////////,^_eeee",
"_____1^(/////////(^1_____",
"______f^,///////,^f______",
"*******!^)!~{~!)^!*******",
"gggggggg,fh'7'hf,gggggggg",
",,,,,,,,,,,,,,,,,,,,,,,,,",
"iiiiiiiiiiiiiiiiiiiiiiiii",
"jjjjjjjjjjjjjjjjjjjjjjjjj",
"jjjjjjjjjjjjjjjjjjjjjjjjj"};
