/* XPM */
static char * maximize_prelight_xpm[] = {
"25 26 65 1",
" 	c None",
".	c #6A6A6A",
"+	c #F9F9F9",
"@	c #F6F6F6",
"#	c #F4F4F4",
"$	c #F2F2F2",
"%	c #EDEDED",
"&	c #DEDEDE",
"*	c #D4D4D4",
"=	c #C9C9C9",
"-	c #C2C2C2",
";	c #F0F0F0",
">	c #DFDFDF",
",	c #C4C4C4",
"'	c #C0C0C0",
")	c #DCDCDC",
"!	c #CBCBCB",
"~	c #D2D2D2",
"{	c #E4E4E4",
"]	c #F1F1F1",
"^	c #FBFBFB",
"/	c #E3E3E3",
"(	c #CECECE",
"_	c #E9E9E9",
":	c #FDFDFD",
"<	c #E2E2E2",
"[	c #D8D8D8",
"}	c #C5C5C5",
"|	c #E1E1E1",
"1	c #E7E7E7",
"2	c #FAFAFA",
"3	c #E0E0E0",
"4	c #C6C6C6",
"5	c #CFCFCF",
"6	c #F8F8F8",
"7	c #D5D5D5",
"8	c #C3C3C3",
"9	c #F7F7F7",
"0	c #7E7E7E",
"a	c #BFBFBF",
"b	c #F5F5F5",
"c	c #7B7B7B",
"d	c #4F4F4F",
"e	c #7C7C7C",
"f	c #D3D3D3",
"g	c #BBBBBB",
"h	c #828282",
"i	c #5F5F5F",
"j	c #DDDDDD",
"k	c #D6D6D6",
"l	c #E6E6E6",
"m	c #848484",
"n	c #5E5E5E",
"o	c #D9D9D9",
"p	c #BCBCBC",
"q	c #DBDBDB",
"r	c #DADADA",
"s	c #C8C8C8",
"t	c #EFEFEF",
"u	c #ECECEC",
"v	c #CDCDCD",
"w	c #BABABA",
"x	c #EAEAEA",
"y	c #D7D7D7",
"z	c #B3B3B3",
".........................",
"+++++++++++++++++++++++++",
"@@@@@@@@@@@@@@@@@@@@@@@@@",
"#########################",
"$$$$$$$$%&*=-=*&%$$$$$$$$",
";;;;;;;>,''''''',>;;;;;;;",
">>>>>)!-'~{]^]{~'-!)>>>>>",
"/////(-,_:::::::_,-(/////",
"<<<<[},@^^^^^^^^^@,}[<<<<",
"|||>!'1222222222221'!>|||",
"333[45666666666666654[333",
">>>78>99999;0;99999>87>>>",
"&&&*a_bbbb$cde$bbbb_a*&&&",
"&&&fg]###]hi5ih]###]gf&&&",
"jjjkal$$$mn{@{nm$$$lakjjj",
")))[,o;;;p/$;$/p;;;o,[)))",
"qqqr!stttb]ttt]bttts!rqqq",
"rrrrogq%%%%%%%%%%%qgorrrr",
"oooor7g1uuuuuuuuu1g7roooo",
"ooooo&vwoxxxxxxxowv&ooooo",
"[[[[[o&yw8f&l&f8wy&o[[[[[",
"yyyyyyy)|5}gzg}5|)yyyyyyy",
"kkkkkkkk[)><{<>)[kkkkkkkk",
"7777777777777777777777777",
"*************************",
"*************************"};
