/* XPM */
static char * maximize_active_xpm[] = {
"25 26 63 1",
" 	c None",
".	c #6A6A6A",
"+	c #F9F9F9",
"@	c #F6F6F6",
"#	c #F4F4F4",
"$	c #F2F2F2",
"%	c #EDEDED",
"&	c #DEDEDE",
"*	c #D4D4D4",
"=	c #C9C9C9",
"-	c #C2C2C2",
";	c #F0F0F0",
">	c #DFDFDF",
",	c #C4C4C4",
"'	c #C0C0C0",
")	c #DCDCDC",
"!	c #CBCBCB",
"~	c #D1D1D1",
"{	c #E1E1E1",
"]	c #E3E3E3",
"^	c #CECECE",
"/	c #C3C3C3",
"(	c #E4E4E4",
"_	c #E2E2E2",
":	c #D8D8D8",
"<	c #C5C5C5",
"[	c #EFEFEF",
"}	c #F1F1F1",
"|	c #E0E0E0",
"1	c #C6C6C6",
"2	c #CCCCCC",
"3	c #D5D5D5",
"4	c #ECECEC",
"5	c #E5E5E5",
"6	c #7A7A7A",
"7	c #BFBFBF",
"8	c #EAEAEA",
"9	c #E7E7E7",
"0	c #797979",
"a	c #4F4F4F",
"b	c #787878",
"c	c #D3D3D3",
"d	c #BBBBBB",
"e	c #7E7E7E",
"f	c #5E5E5E",
"g	c #CFCFCF",
"h	c #DDDDDD",
"i	c #D6D6D6",
"j	c #DBDBDB",
"k	c #7F7F7F",
"l	c #EBEBEB",
"m	c #B9B9B9",
"n	c #E6E6E6",
"o	c #DADADA",
"p	c #D9D9D9",
"q	c #D0D0D0",
"r	c #D7D7D7",
"s	c #CDCDCD",
"t	c #B8B8B8",
"u	c #BABABA",
"v	c #BDBDBD",
"w	c #C7C7C7",
"x	c #B3B3B3",
".........................",
"+++++++++++++++++++++++++",
"@@@@@@@@@@@@@@@@@@@@@@@@@",
"#########################",
"$$$$$$$$%&*=-=*&%$$$$$$$$",
";;;;;;;>,''''''',>;;;;;;;",
">>>>>)!-'~{%@%{~'-!)>>>>>",
"]]]]]^-/(@@@@@@@(/-^]]]]]",
"____:</[#########[/<:____",
"{{{>!'{}}}}}}}}}}}{'!>{{{",
"|||:12[[[[[[[[[[[[[21:|||",
">>>3/:4444456544444:/3>>>",
"&&&*7|888890ab98888|7*&&&",
"&&&cd59995efgfe59995dc&&&",
"hhhi7j(((kf_l_fk(((j7ihhh",
"))):,~___m{n_n{m___~,:)))",
"jjjo!/>>>8(>>>(8>>>/!ojjj",
"oooopdqhhhhhhhhhhhqdpoooo",
"ppppo3mrooooooooorm3opppp",
"ppppp&sts:::::::sts&ppppp",
":::::p&ruvw^c^wvur&p:::::",
"rrrrrrr){g<dxd<g{)rrrrrrr",
"iiiiiiii:)>_(_>):iiiiiiii",
"3333333333333333333333333",
"*************************",
"*************************"};
