/* XPM */
static char * maximize_inactive_xpm[] = {
"25 26 49 1",
" 	c None",
".	c #6A6A6A",
"+	c #F9F9F9",
"@	c #F6F6F6",
"#	c #F4F4F4",
"$	c #F2F2F2",
"%	c #F0F0F0",
"&	c #EEEEEE",
"*	c #D8D8D8",
"=	c #CBCBCB",
"-	c #BFBFBF",
";	c #B6B6B6",
">	c #DFDFDF",
",	c #D6D6D6",
"'	c #BABABA",
")	c #C3C3C3",
"!	c #D1D1D1",
"~	c #DCDCDC",
"{	c #E3E3E3",
"]	c #CFCFCF",
"^	c #B9B9B9",
"/	c #E6E6E6",
"(	c #E2E2E2",
"_	c #D9D9D9",
":	c #E1E1E1",
"<	c #E0E0E0",
"[	c #CECECE",
"}	c #C4C4C4",
"|	c #8A8A8A",
"1	c #DEDEDE",
"2	c #BBBBBB",
"3	c #898989",
"4	c #676767",
"5	c #B5B5B5",
"6	c #E4E4E4",
"7	c #8F8F8F",
"8	c #737373",
"9	c #DDDDDD",
"0	c #919191",
"a	c #D3D3D3",
"b	c #B8B8B8",
"c	c #D2D2D2",
"d	c #DBDBDB",
"e	c #DADADA",
"f	c #C9C9C9",
"g	c #D7D7D7",
"h	c #C1C1C1",
"i	c #D5D5D5",
"j	c #D4D4D4",
".........................",
"+++++++++++++++++++++++++",
"@@@@@@@@@@@@@@@@@@@@@@@@@",
"#########################",
"$$$$$$$$$$$$$$$$$$$$$$$$$",
"%%%%%%%%&*=-;-=*&%%%%%%%%",
">>>>>>>,')!~{~!)',>>>>>>>",
"{{{{{{]^,///////,^]{{{{{{",
"(((((_^(/////////(^_(((((",
"::::<',///////////,'<::::",
"<<<<[)/////////////)[<<<<",
">>>>}!/////:|</////!}>>>>",
"11112~////{343{////~21111",
"11115{///678)876///{51111",
"99992~///08a/a80///~29999",
"~~~~)!///bc///cb///!)~~~~",
"dddd=)/////////////)=dddd",
"eeee_^,///////////,^_eeee",
"_____c^(/////////(^c_____",
"______f^,///////,^f______",
"*******!^)!~{~!)^!*******",
"gggggggg,fh'5'hf,gggggggg",
",,,,,,,,,,,,,,,,,,,,,,,,,",
"iiiiiiiiiiiiiiiiiiiiiiiii",
"jjjjjjjjjjjjjjjjjjjjjjjjj",
"jjjjjjjjjjjjjjjjjjjjjjjjj"};
