/* XPM */
static char * maximize_pressed_xpm[] = {
"25 26 62 1",
" 	c None",
".	c #6A6A6A",
"+	c #F9F9F9",
"@	c #F6F6F6",
"#	c #F4F4F4",
"$	c #F2F2F2",
"%	c #EDEDED",
"&	c #DEDEDE",
"*	c #D4D4D4",
"=	c #C9C9C9",
"-	c #C2C2C2",
";	c #F0F0F0",
">	c #DFDFDF",
",	c #C3C3C3",
"'	c #B0B0B0",
")	c #A7A7A7",
"!	c #9F9F9F",
"~	c #999999",
"{	c #DCDCDC",
"]	c #CBCBCB",
"^	c #BBBBBB",
"/	c #A1A1A1",
"(	c #A8A8A8",
"_	c #B6B6B6",
":	c #BFBFBF",
"<	c #C7C7C7",
"[	c #E3E3E3",
"}	c #CECECE",
"|	c #B5B5B5",
"1	c #A4A4A4",
"2	c #BDBDBD",
"3	c #E2E2E2",
"4	c #D8D8D8",
"5	c #C0C0C0",
"6	c #CDCDCD",
"7	c #E1E1E1",
"8	c #ADADAD",
"9	c #CFCFCF",
"0	c #E0E0E0",
"a	c #B8B8B8",
"b	c #D2D2D2",
"c	c #D5D5D5",
"d	c #BCBCBC",
"e	c #C6C6C6",
"f	c #737373",
"g	c #D6D6D6",
"h	c #D3D3D3",
"i	c #747474",
"j	c #4F4F4F",
"k	c #797979",
"l	c #5E5E5E",
"m	c #DDDDDD",
"n	c #DADADA",
"o	c #7C7C7C",
"p	c #5D5D5D",
"q	c #E4E4E4",
"r	c #DBDBDB",
"s	c #EAEAEA",
"t	c #D9D9D9",
"u	c #E5E5E5",
"v	c #E6E6E6",
"w	c #D7D7D7",
".........................",
"+++++++++++++++++++++++++",
"@@@@@@@@@@@@@@@@@@@@@@@@@",
"#########################",
"$$$$$$$$%&*=-=*&%$$$$$$$$",
";;;;;;;>,')!~!)',>;;;;;;;",
">>>>>{]^/(_:<:_(/^]{>>>>>",
"[[[[[}|12]]]]]]]21|}[[[[[",
"333345(=666666666=(543333",
"777>]8,99999999999,8]>777",
"00045abbbbbbbbbbbbba54000",
">>>cde*****}f}*****edc>>>",
"&&&*^9gggghijihgggg9^*&&&",
"&&&h^g444gkl9lkg444g^h&&&",
"mmmg,*nnnop7q7ponnn*,gmmm",
"{{{4]b{{{a77{77a{{{b]4{{{",
"rrrnb9&&&s[&&&[s&&&9bnrrr",
"nnnnn9r77777777777r9nnnnn",
"ttttnr*3[[[[[[[[[3*rntttt",
"ttttt&{47uuuuuuu74{&ttttt",
"44444t&0m0[uvu[0m0&t44444",
"wwwwwww{333373333{wwwwwww",
"gggggggg4{>3q3>{4gggggggg",
"ccccccccccccccccccccccccc",
"*************************",
"*************************"};
