/* XPM */
static char * menu_inactive_xpm[] = {
"24 26 37 1",
" 	c None",
".	c #6A6A6A",
"+	c #F9F9F9",
"@	c #F6F6F6",
"#	c #F4F4F4",
"$	c #F2F2F2",
"%	c #F0F0F0",
"&	c #DFDFDF",
"*	c #E3E3E3",
"=	c #E2E2E2",
"-	c #E1E1E1",
";	c #E0E0E0",
">	c #DBDBDB",
",	c #D2D2D2",
"'	c #CBCBCB",
")	c #DADADA",
"!	c #CECECE",
"~	c #D6D6D6",
"{	c #EEEEEE",
"]	c #D1D1D1",
"^	c #D4D4D4",
"/	c #FDFDFD",
"(	c #DEDEDE",
"_	c #C9C9C9",
":	c #E8E8E8",
"<	c #E5E5E5",
"[	c #F5F5F5",
"}	c #DDDDDD",
"|	c #CFCFCF",
"1	c #F1F1F1",
"2	c #DCDCDC",
"3	c #D5D5D5",
"4	c #CDCDCD",
"5	c #C6C6C6",
"6	c #D9D9D9",
"7	c #D8D8D8",
"8	c #D7D7D7",
"........................",
"++++++++++++++++++++++++",
"@@@@@@@@@@@@@@@@@@@@@@@@",
"########################",
"$$$$$$$$$$$$$$$$$$$$$$$$",
"%%%%%%%%%%%%%%%%%%%%%%%%",
"&&&&&&&&&&&&&&&&&&&&&&&&",
"************************",
"========================",
"--------;>,'',>;--------",
";;;;;;;;)!~{{~!);;;;;;;;",
"&&&&&&&&]^////^]&&&&&&&&",
"((((((((_:++++:_((((((((",
"((((((((_<[[[[<_((((((((",
"}}}}}}}}|!1111!|}}}}}}}}",
"22222222~_'(('_~22222222",
">>>>>>>>)345543)>>>>>>>>",
"))))))))))))))))))))))))",
"666666666666666666666666",
"666666666666666666666666",
"777777777777777777777777",
"888888888888888888888888",
"~~~~~~~~~~~~~~~~~~~~~~~~",
"333333333333333333333333",
"^^^^^^^^^^^^^^^^^^^^^^^^",
"^^^^^^^^^^^^^^^^^^^^^^^^"};
