/* XPM */
static char * menu_prelight_xpm[] = {
"24 26 35 1",
" 	c None",
".	c #6A6A6A",
"+	c #F9F9F9",
"@	c #F6F6F6",
"#	c #F4F4F4",
"$	c #F2F2F2",
"%	c #F0F0F0",
"&	c #DFDFDF",
"*	c #E3E3E3",
"=	c #E2E2E2",
"-	c #E1E1E1",
";	c #E0E0E0",
">	c #DBDBDB",
",	c #D2D2D2",
"'	c #CBCBCB",
")	c #DADADA",
"!	c #CECECE",
"~	c #D6D6D6",
"{	c #EEEEEE",
"]	c #D1D1D1",
"^	c #D5D5D5",
"/	c #FFFFFF",
"(	c #DEDEDE",
"_	c #C9C9C9",
":	c #EDEDED",
"<	c #DDDDDD",
"[	c #CFCFCF",
"}	c #D4D4D4",
"|	c #DCDCDC",
"1	c #CACACA",
"2	c #CDCDCD",
"3	c #C6C6C6",
"4	c #D9D9D9",
"5	c #D8D8D8",
"6	c #D7D7D7",
"........................",
"++++++++++++++++++++++++",
"@@@@@@@@@@@@@@@@@@@@@@@@",
"########################",
"$$$$$$$$$$$$$$$$$$$$$$$$",
"%%%%%%%%%%%%%%%%%%%%%%%%",
"&&&&&&&&&&&&&&&&&&&&&&&&",
"************************",
"========================",
"--------;>,'',>;--------",
";;;;;;;;)!~{{~!);;;;;;;;",
"&&&&&&&&]^////^]&&&&&&&&",
"((((((((_:////:_((((((((",
"((((((((_:////:_((((((((",
"<<<<<<<<[}////}[<<<<<<<<",
"||||||||~1}::}1~||||||||",
">>>>>>>>)^2332^)>>>>>>>>",
"))))))))))))))))))))))))",
"444444444444444444444444",
"444444444444444444444444",
"555555555555555555555555",
"666666666666666666666666",
"~~~~~~~~~~~~~~~~~~~~~~~~",
"^^^^^^^^^^^^^^^^^^^^^^^^",
"}}}}}}}}}}}}}}}}}}}}}}}}",
"}}}}}}}}}}}}}}}}}}}}}}}}"};
