/* XPM */
static char * title_4_inactive_xpm[] = {
"10 26 23 1",
" 	c None",
".	c #6A6A6A",
"+	c #F9F9F9",
"@	c #F6F6F6",
"#	c #F4F4F4",
"$	c #F2F2F2",
"%	c #F0F0F0",
"&	c #DFDFDF",
"*	c #E3E3E3",
"=	c #E2E2E2",
"-	c #E1E1E1",
";	c #E0E0E0",
">	c #DEDEDE",
",	c #DDDDDD",
"'	c #DCDCDC",
")	c #DBDBDB",
"!	c #DADADA",
"~	c #D9D9D9",
"{	c #D8D8D8",
"]	c #D7D7D7",
"^	c #D6D6D6",
"/	c #D5D5D5",
"(	c #D4D4D4",
"..........",
"++++++++++",
"@@@@@@@@@@",
"##########",
"$$$$$$$$$$",
"%%%%%%%%%%",
"&&&&&&&&&&",
"**********",
"==========",
"----------",
";;;;;;;;;;",
"&&&&&&&&&&",
">>>>>>>>>>",
">>>>>>>>>>",
",,,,,,,,,,",
"''''''''''",
"))))))))))",
"!!!!!!!!!!",
"~~~~~~~~~~",
"~~~~~~~~~~",
"{{{{{{{{{{",
"]]]]]]]]]]",
"^^^^^^^^^^",
"//////////",
"((((((((((",
"(((((((((("};
