/* XPM */
static char * top_right_active_shaded_xpm[] = {
"4 26 27 1",
" 	c None",
".	c #65686D",
"+	c #6A6A6A",
"@	c #F9F9F9",
"#	c #EFEFEF",
"$	c #828282",
"%	c #F6F6F6",
"&	c #DFDFDF",
"*	c #F4F4F4",
"=	c #696A6A",
"-	c #F2F2F2",
";	c #F0F0F0",
">	c #E3E3E3",
",	c #E2E2E2",
"'	c #E1E1E1",
")	c #E0E0E0",
"!	c #DEDEDE",
"~	c #DDDDDD",
"{	c #DCDCDC",
"]	c #DBDBDB",
"^	c #DADADA",
"/	c #D9D9D9",
"(	c #D8D8D8",
"_	c #D7D7D7",
":	c #D6D6D6",
"<	c #D5D5D5",
"[	c #D4D4D4",
".+  ",
"@#$ ",
"%%&+",
"***=",
"---+",
";;;+",
"&&&+",
">>>+",
",,,+",
"'''+",
")))+",
"&&&+",
"!!!+",
"!!!+",
"~~~+",
"{{{+",
"]]]+",
"^^^+",
"///+",
"///+",
"(((+",
"___+",
":::+",
"<<<+",
"[[[+",
"[[[+"};
