<?xml version="1.0" encoding="UTF-8" standalone="no"?>
<!-- Created with Inkscape (http://www.inkscape.org/) -->

<svg
   xmlns:dc="http://purl.org/dc/elements/1.1/"
   xmlns:cc="http://creativecommons.org/ns#"
   xmlns:rdf="http://www.w3.org/1999/02/22-rdf-syntax-ns#"
   xmlns:svg="http://www.w3.org/2000/svg"
   xmlns="http://www.w3.org/2000/svg"
   xmlns:xlink="http://www.w3.org/1999/xlink"
   xmlns:sodipodi="http://sodipodi.sourceforge.net/DTD/sodipodi-0.dtd"
   xmlns:inkscape="http://www.inkscape.org/namespaces/inkscape"
   version="1.0"
   width="32"
   height="32"
   viewBox="0 0 23.272727 23.272728"
   id="Foreground"
   xml:space="preserve"
   inkscape:version="0.48.2 r9819"
   sodipodi:docname="close-window.svg"><sodipodi:namedview
   pagecolor="#ffffff"
   bordercolor="#666666"
   borderopacity="1"
   objecttolerance="10"
   gridtolerance="10"
   guidetolerance="10"
   inkscape:pageopacity="0"
   inkscape:pageshadow="2"
   inkscape:window-width="1362"
   inkscape:window-height="719"
   id="namedview12"
   showgrid="false"
   inkscape:zoom="21.453323"
   inkscape:cx="15.300807"
   inkscape:cy="16"
   inkscape:window-x="0"
   inkscape:window-y="26"
   inkscape:window-maximized="1"
   inkscape:current-layer="layer1" /><metadata
   id="metadata2399"><rdf:RDF><cc:Work
       rdf:about=""><dc:format>image/svg+xml</dc:format><dc:type
         rdf:resource="http://purl.org/dc/dcmitype/StillImage" /><dc:title /></cc:Work></rdf:RDF></metadata><defs
   id="defs2397"><linearGradient
     inkscape:collect="always"
     id="linearGradient3798"><stop
       style="stop-color:#ffffff;stop-opacity:1"
       offset="0"
       id="stop3800" /><stop
       style="stop-color:#e8e8e8;stop-opacity:1"
       offset="1"
       id="stop3802" /></linearGradient><linearGradient
     id="linearGradient3975"><stop
       id="stop3977"
       style="stop-color:#bad3b7;stop-opacity:1"
       offset="0" /><stop
       id="stop3979"
       style="stop-color:#e5ecdd;stop-opacity:1"
       offset="1" /></linearGradient><linearGradient
     x1="11.625"
     y1="7.53125"
     x2="11.625"
     y2="0.1875"
     id="linearGradient4738"
     xlink:href="#linearGradient3975"
     gradientUnits="userSpaceOnUse"
     gradientTransform="matrix(0.91491398,0,0,0.92891195,-0.23003676,9.468834)" /><linearGradient
     inkscape:collect="always"
     xlink:href="#linearGradient3798"
     id="linearGradient3804"
     x1="-11.570327"
     y1="3.1988826"
     x2="-11.702402"
     y2="20.329527"
     gradientUnits="userSpaceOnUse"
     gradientTransform="matrix(1.0705275,0,0,1.0705277,0.82068587,-0.82068563)" /></defs>

<g
   inkscape:groupmode="layer"
   id="layer1"
   inkscape:label="base"><rect
     transform="scale(-1,1)"
     width="18.130526"
     height="18.130526"
     rx="2.3142555"
     ry="1.9542551"
     x="-20.701626"
     y="2.5711012"
     id="rect16256-9-4"
     style="opacity:0.92000002;color:#000000;fill:url(#linearGradient3804);fill-opacity:1;stroke:#55ebdf;stroke-width:1.30909097;stroke-linecap:round;stroke-linejoin:miter;stroke-miterlimit:4;stroke-opacity:1;stroke-dasharray:none;stroke-dashoffset:0;marker:none;visibility:visible;display:inline;overflow:visible;enable-background:accumulate" /></g><g
   inkscape:groupmode="layer"
   id="layer2"
   inkscape:label="croce"
   style="display:inline"><path
     d="M 8.0152081,6.5500788 C 7.6218572,6.5639388 7.2398252,6.7124774 6.949487,7.0394782 6.3688106,7.6934829 6.4244508,8.7353126 7.0493966,9.346651 l 2.3312661,2.307172 -2.3312657,2.272219 c -0.6251952,0.611062 -0.6803225,1.617952 -0.09991,2.272219 0.5804112,0.654261 1.5728548,0.715928 2.198049,0.10488 l 2.4977832,-2.447003 2.497786,2.447001 c 0.624946,0.611341 1.584069,0.549134 2.164745,-0.104881 0.580678,-0.654004 0.558339,-1.660877 -0.06659,-2.272215 L 13.909994,11.653827 16.24126,9.346652 c 0.625186,-0.6110597 0.647011,-1.6179512 0.06659,-2.2722146 -0.580414,-0.6542649 -1.539553,-0.7159322 -2.16475,-0.10486 L 11.64532,9.4165647 9.1475368,6.9695637 C 8.8350631,6.6638945 8.4085594,6.5361586 8.0152081,6.5500788 z"
     id="rect4761"
     style="fill:#55ebde;fill-opacity:1;stroke:none"
     inkscape:connector-curvature="0" /></g><g
   style="display:inline"
   inkscape:label="croce copia"
   id="g3806"
   inkscape:groupmode="layer"><path
     inkscape:connector-curvature="0"
     style="fill:#464646;fill-opacity:1;stroke:none"
     id="path3808"
     d="M 8.5325164,7.2766923 C 8.1953583,7.2885723 7.8679023,7.4158911 7.6190409,7.6961775 7.1213182,8.2567527 7.1690097,9.1497494 7.7046777,9.6737536 l 1.9982284,1.9775764 -1.998228,1.947616 c -0.5358818,0.523766 -0.5831337,1.386815 -0.085637,1.947614 0.4974955,0.560796 1.3481616,0.613653 1.8840429,0.0899 l 2.140956,-2.097431 2.14096,2.097429 c 0.535668,0.524006 1.357773,0.470687 1.855496,-0.0899 0.497724,-0.560574 0.478576,-1.423609 -0.05708,-1.947612 l -1.998232,-1.947613 1.998229,-1.9775794 c 0.535875,-0.5237654 0.554582,-1.386815 0.05708,-1.9476121 -0.497498,-0.5607983 -1.319617,-0.613656 -1.855501,-0.08988 L 11.644042,9.7336796 9.5030842,7.6362507 C 9.2352493,7.3742487 8.8696747,7.2647608 8.5325164,7.2766923 z" /></g></svg>