<?xml version="1.0" encoding="UTF-8" standalone="no"?>
<!-- Created with Inkscape (http://www.inkscape.org/) -->

<svg
   xmlns:dc="http://purl.org/dc/elements/1.1/"
   xmlns:cc="http://creativecommons.org/ns#"
   xmlns:rdf="http://www.w3.org/1999/02/22-rdf-syntax-ns#"
   xmlns:svg="http://www.w3.org/2000/svg"
   xmlns="http://www.w3.org/2000/svg"
   xmlns:xlink="http://www.w3.org/1999/xlink"
   xmlns:sodipodi="http://sodipodi.sourceforge.net/DTD/sodipodi-0.dtd"
   xmlns:inkscape="http://www.inkscape.org/namespaces/inkscape"
   version="1.0"
   width="32"
   height="32"
   viewBox="0 0 23.272727 23.272728"
   id="Foreground"
   xml:space="preserve"
   inkscape:version="0.48.2 r9819"
   sodipodi:docname="close-window.svg"><sodipodi:namedview
   pagecolor="#ffffff"
   bordercolor="#666666"
   borderopacity="1"
   objecttolerance="10"
   gridtolerance="10"
   guidetolerance="10"
   inkscape:pageopacity="0"
   inkscape:pageshadow="2"
   inkscape:window-width="1366"
   inkscape:window-height="724"
   id="namedview12"
   showgrid="false"
   inkscape:zoom="21.175128"
   inkscape:cx="15.999999"
   inkscape:cy="16"
   inkscape:window-x="0"
   inkscape:window-y="19"
   inkscape:window-maximized="1"
   inkscape:current-layer="layer1" /><metadata
   id="metadata2399"><rdf:RDF><cc:Work
       rdf:about=""><dc:format>image/svg+xml</dc:format><dc:type
         rdf:resource="http://purl.org/dc/dcmitype/StillImage" /><dc:title /></cc:Work></rdf:RDF></metadata><defs
   id="defs2397"><linearGradient
     id="linearGradient3975"><stop
       id="stop3977"
       style="stop-color:#bad3b7;stop-opacity:1"
       offset="0" /><stop
       id="stop3979"
       style="stop-color:#e5ecdd;stop-opacity:1"
       offset="1" /></linearGradient><linearGradient
     x1="11.625"
     y1="7.53125"
     x2="11.625"
     y2="0.1875"
     id="linearGradient4738"
     xlink:href="#linearGradient3975"
     gradientUnits="userSpaceOnUse"
     gradientTransform="matrix(0.91491398,0,0,0.92891195,-0.23003676,9.468834)" /></defs>

<g
   inkscape:groupmode="layer"
   id="layer1"
   inkscape:label="base"><rect
     transform="scale(-1,1)"
     width="18.130526"
     height="18.130526"
     rx="2.3142555"
     ry="1.9542551"
     x="-20.701626"
     y="2.5711012"
     id="rect16256-9-4"
     style="opacity:1;color:#000000;fill:#646464;fill-opacity:1;stroke:#6b0000;stroke-width:1.30909096999999996;stroke-linecap:round;stroke-linejoin:miter;stroke-miterlimit:4;stroke-opacity:1;stroke-dasharray:none;stroke-dashoffset:0;marker:none;visibility:visible;display:inline;overflow:visible;enable-background:accumulate" /></g><g
   inkscape:groupmode="layer"
   id="layer2"
   inkscape:label="croce"
   style="display:inline"><path
     d="M 8.0152081,6.5500788 C 7.6218572,6.5639388 7.2398252,6.7124774 6.949487,7.0394782 6.3688106,7.6934829 6.4244508,8.7353126 7.0493966,9.346651 l 2.3312661,2.307172 -2.3312657,2.272219 c -0.6251952,0.611062 -0.6803225,1.617952 -0.09991,2.272219 0.5804112,0.654261 1.5728548,0.715928 2.198049,0.10488 l 2.4977832,-2.447003 2.497786,2.447001 c 0.624946,0.611341 1.584069,0.549134 2.164745,-0.104881 0.580678,-0.654004 0.558339,-1.660877 -0.06659,-2.272215 L 13.909994,11.653827 16.24126,9.346652 c 0.625186,-0.6110597 0.647011,-1.6179512 0.06659,-2.2722146 -0.580414,-0.6542649 -1.539553,-0.7159322 -2.16475,-0.10486 L 11.64532,9.4165647 9.1475368,6.9695637 C 8.8350631,6.6638945 8.4085594,6.5361586 8.0152081,6.5500788 z"
     id="rect4761"
     style="fill:#6b0000;fill-opacity:1;stroke:none"
     inkscape:connector-curvature="0" /></g><g
   style="display:inline"
   inkscape:label="croce copia"
   id="g3806"
   inkscape:groupmode="layer"><path
     inkscape:connector-curvature="0"
     style="fill:#232323;fill-opacity:1;stroke:none"
     id="path3808"
     d="M 8.2738622,6.9133863 C 7.9086077,6.9262563 7.5538637,7.064185 7.2842639,7.3678286 6.7450644,7.9751184 6.7967302,8.9425314 7.3770371,9.5102034 l 2.1647472,2.1423736 -2.1647468,2.109917 c -0.5805385,0.567413 -0.631728,1.502383 -0.092773,2.109915 0.5389535,0.607529 1.4605083,0.664791 2.0410462,0.09739 l 2.3193693,-2.272217 2.319373,2.272215 c 0.580307,0.567673 1.47092,0.509911 2.01012,-0.09739 0.539201,-0.607288 0.518457,-1.542243 -0.06184,-2.109913 L 13.747583,11.65258 15.91233,9.5102034 C 16.492864,8.9427901 16.51313,8.0078197 15.97417,7.4002896 15.435214,6.7927582 14.544586,6.7354957 13.964045,7.3029196 L 11.644682,9.5751232 9.3253106,7.3029079 C 9.0351561,7.0190724 8.639117,6.9004606 8.2738622,6.9133863 z" /></g></svg>